<svg width="132" height="290" viewBox="0 0 132 290" fill="none" xmlns="http://www.w3.org/2000/svg">
<path d="M126.807 0H111.113C67.4931 0 32.0061 35.488 32.0061 79.108V112.494H5.19312C2.43212 112.494 0.193115 114.733 0.193115 117.494V157.494C0.193115 160.255 2.43212 162.494 5.19312 162.494H32.0041V285C32.0041 287.761 34.2431 290 37.0041 290H77.0041C79.7651 290 82.0041 287.761 82.0041 285V162.494H121.79C124.551 162.494 126.79 160.255 126.79 157.494V117.494C126.79 114.733 124.551 112.494 121.79 112.494H82.0041V79.108C82.0041 63.058 95.0621 50 111.111 50H126.805C129.566 50 131.805 47.761 131.805 45V5C131.807 2.239 129.568 0 126.807 0Z" fill="white"/>
</svg>
