<svg width="274" height="274" viewBox="0 0 274 274" fill="none" xmlns="http://www.w3.org/2000/svg">
<path d="M137 95.9C126.1 95.9 115.646 100.23 107.938 107.938C100.23 115.646 95.9 126.1 95.9 137C95.9 147.9 100.23 158.354 107.938 166.062C115.646 173.77 126.1 178.1 137 178.1C147.9 178.1 158.354 173.77 166.062 166.062C173.77 158.354 178.1 147.9 178.1 137C178.1 126.1 173.77 115.646 166.062 107.938C158.354 100.23 147.9 95.9 137 95.9ZM137 68.5C155.167 68.5 172.591 75.7169 185.437 88.5632C198.283 101.409 205.5 118.833 205.5 137C205.5 155.167 198.283 172.591 185.437 185.437C172.591 198.283 155.167 205.5 137 205.5C118.833 205.5 101.409 198.283 88.5632 185.437C75.7169 172.591 68.5 155.167 68.5 137C68.5 118.833 75.7169 101.409 88.5632 88.5632C101.409 75.7169 118.833 68.5 137 68.5V68.5ZM226.05 65.075C226.05 69.6168 224.246 73.9726 221.034 77.1842C217.823 80.3958 213.467 82.2 208.925 82.2C204.383 82.2 200.027 80.3958 196.816 77.1842C193.604 73.9726 191.8 69.6168 191.8 65.075C191.8 60.5332 193.604 56.1774 196.816 52.9658C200.027 49.7542 204.383 47.95 208.925 47.95C213.467 47.95 217.823 49.7542 221.034 52.9658C224.246 56.1774 226.05 60.5332 226.05 65.075V65.075ZM137 27.4C103.106 27.4 97.5714 27.4959 81.8027 28.1946C71.0619 28.7015 63.8557 30.14 57.1701 32.743C51.2243 35.0446 46.9362 37.7983 42.3741 42.3741C38.0861 46.517 34.7891 51.5748 32.7293 57.1701C30.1263 63.8831 28.6878 71.0756 28.1946 81.8027C27.4822 96.9275 27.4 102.216 27.4 137C27.4 170.894 27.4959 176.429 28.1946 192.197C28.7015 202.924 30.14 210.144 32.7293 216.816C35.0583 222.776 37.7983 227.064 42.3467 231.612C46.9636 236.215 51.2517 238.969 57.1427 241.243C63.9105 243.86 71.1167 245.312 81.8027 245.805C96.9275 246.518 102.216 246.6 137 246.6C170.894 246.6 176.429 246.504 192.197 245.805C202.911 245.298 210.131 243.86 216.816 241.271C222.748 238.955 227.064 236.202 231.612 231.653C236.229 227.036 238.983 222.748 241.257 216.857C243.86 210.103 245.312 202.883 245.805 192.197C246.518 177.072 246.6 171.784 246.6 137C246.6 103.106 246.504 97.5714 245.805 81.8027C245.298 71.0893 243.86 63.8557 241.257 57.1701C239.192 51.5805 235.901 46.5247 231.626 42.3741C227.485 38.0839 222.426 34.7866 216.83 32.7293C210.117 30.1263 202.911 28.6878 192.197 28.1946C177.072 27.4822 171.784 27.4 137 27.4ZM137 0C174.223 0 178.867 0.136999 193.471 0.821999C208.062 1.507 217.994 3.7949 226.735 7.1925C235.777 10.6723 243.394 15.3851 251.011 22.9886C257.978 29.8372 263.368 38.1215 266.808 47.265C270.191 55.9919 272.493 65.9381 273.178 80.5286C273.822 95.1328 274 99.7771 274 137C274 174.223 273.863 178.867 273.178 193.471C272.493 208.062 270.191 217.994 266.808 226.735C263.378 235.884 257.986 244.17 251.011 251.011C244.161 257.975 235.877 263.365 226.735 266.808C218.008 270.191 208.062 272.493 193.471 273.178C178.867 273.822 174.223 274 137 274C99.7771 274 95.1328 273.863 80.5286 273.178C65.9381 272.493 56.0056 270.191 47.265 266.808C38.1179 263.375 29.8321 257.984 22.9886 251.011C16.0209 244.164 10.6303 235.879 7.1925 226.735C3.7949 218.008 1.507 208.062 0.821999 193.471C0.178099 178.867 0 174.223 0 137C0 99.7771 0.136999 95.1328 0.821999 80.5286C1.507 65.9244 3.7949 56.0056 7.1925 47.265C10.6207 38.1159 16.0126 29.8293 22.9886 22.9886C29.8341 16.0185 38.1193 10.6275 47.265 7.1925C56.0056 3.7949 65.9244 1.507 80.5286 0.821999C95.1328 0.178099 99.7771 0 137 0Z" fill="white"/>
</svg>
