<svg width="311" height="254" viewBox="0 0 311 254" fill="none" xmlns="http://www.w3.org/2000/svg">
<path d="M303.973 29.3879C299.103 31.5479 294.096 33.3709 288.98 34.8509C295.037 28.0009 299.655 19.9409 302.474 11.1209C303.106 9.14392 302.451 6.97992 300.826 5.68692C299.203 4.39292 296.948 4.23792 295.161 5.29692C284.296 11.7409 272.574 16.3719 260.283 19.0799C247.902 6.98193 231.086 0.0969238 213.702 0.0969238C177.007 0.0969238 147.153 29.9499 147.153 66.6439C147.153 69.5339 147.336 72.4079 147.698 75.2419C102.163 71.2439 59.83 48.8629 30.76 13.2039C29.724 11.9329 28.128 11.2479 26.494 11.3789C24.859 11.5069 23.39 12.4289 22.564 13.8459C16.668 23.9629 13.551 35.5339 13.551 47.3069C13.551 63.3419 19.276 78.5559 29.389 90.4439C26.314 89.3789 23.33 88.0479 20.482 86.4669C18.953 85.6159 17.087 85.6289 15.568 86.4999C14.048 87.3709 13.095 88.9729 13.055 90.7239C13.048 91.0189 13.048 91.3139 13.048 91.6129C13.048 115.548 25.93 137.097 45.625 148.842C43.933 148.673 42.242 148.428 40.562 148.107C38.83 147.776 37.049 148.383 35.881 149.704C34.711 151.024 34.324 152.864 34.863 154.544C42.153 177.304 60.922 194.045 83.612 199.149C64.793 210.936 43.272 217.11 20.68 217.11C15.966 217.11 11.225 216.833 6.58501 216.284C4.28001 216.01 2.07601 217.371 1.29101 219.563C0.506015 221.756 1.33801 224.201 3.29901 225.458C32.322 244.067 65.881 253.903 100.346 253.903C168.1 253.903 210.485 221.953 234.11 195.15C263.57 161.729 280.466 117.492 280.466 73.7829C280.466 71.9569 280.438 70.1129 280.382 68.2749C292.005 59.5179 302.012 48.9199 310.155 36.7389C311.392 34.8889 311.258 32.4439 309.825 30.7409C308.394 29.0369 306.009 28.4859 303.973 29.3879Z" fill="white"/>
</svg>
